# xmcd CD database file
#
# Track frame offsets:
#	150
#	43446
#	80564
#	110544
#	132413
#
# Disc length: 2076 seconds
#
# Revision: 0
# Processed by: cddbd v1.5.2PL0 Copyright (c) Steve Scherf et al.
# Submitted via: CDex 1.70beta3
#
DISCID=45081a05
DTITLE=ART BRAKEY and THE JAZZ MESSENGERS - 04 Art Blakey
DYEAR=2012
DGENRE=Jazz
TTITLE0=Moanin'
TTITLE1=Mosaic
TTITLE2=So Tired
TTITLE3=Are You Real
TTITLE4=Moon River
EXTD=YEAR: 2012
EXTT0=
EXTT1=
EXTT2=
EXTT3=
EXTT4=
PLAYORDER=
